# Blender v2.82 (sub 7) OBJ File: 'box.blend'
# www.blender.org
mtllib box.mtl
o Cube_Cube.011
v -1.315197 0.054969 1.341639
v -1.315197 2.596891 1.341639
v -1.315197 0.054969 -1.200283
v -1.315197 2.596891 -1.200283
v 1.226726 0.054969 1.341639
v 1.226726 2.596891 1.341639
v 1.226726 0.054969 -1.200283
v 1.226726 2.596891 -1.200283
v -1.315197 2.271762 1.341639
v -1.315197 2.271762 -1.200283
v 1.226726 2.271762 -1.200283
v 1.226726 2.271762 1.341639
v -1.315197 0.365320 -1.200283
v 1.226726 0.365320 -1.200283
v 1.226726 0.365320 1.341639
v -1.315197 0.365320 1.341639
v -1.063960 0.054969 -1.200283
v -1.063960 2.596891 -1.200283
v -1.063960 0.054969 1.341639
v -1.063960 2.596891 1.341639
v -1.063960 2.271762 1.341639
v -1.063960 2.271762 -1.200283
v -1.063960 0.365320 -1.200283
v -1.063960 0.365320 1.341639
v 0.903680 2.596891 -1.200283
v 0.903680 0.054969 1.341639
v 0.903680 2.271762 -1.200283
v 0.903680 0.365320 -1.200283
v 0.903680 0.054969 -1.200283
v 0.903680 2.596891 1.341639
v 0.903680 2.271762 1.341639
v 0.903680 0.365320 1.341639
v -1.315197 0.054969 -0.875154
v -1.315197 2.596891 -0.875154
v 1.226726 0.054969 -0.875154
v 1.226726 2.596891 -0.875154
v 1.226726 2.271762 -0.875154
v -1.315197 2.271762 -0.875154
v -1.315197 0.365320 -0.875154
v 1.226726 0.365320 -0.875154
v -1.063960 2.596891 -0.875154
v -1.063960 0.054969 -0.875154
v 0.903680 2.596891 -0.875154
v 0.903680 0.054969 -0.875154
v -1.315197 0.054969 1.035372
v 1.226726 2.596891 1.035372
v 1.226726 2.271762 1.035372
v 1.226726 0.365320 1.035372
v -1.063960 2.596891 1.035372
v -1.063960 0.054969 1.035372
v 0.903680 2.596891 1.035372
v 0.903680 0.054969 1.035372
v -1.315197 2.596891 1.035372
v 1.226726 0.054969 1.035372
v -1.315197 2.271762 1.035372
v -1.315197 0.365320 1.035372
v 1.226726 2.271762 0.709647
v 1.226726 0.689855 -0.875154
v 1.226726 1.965495 1.035372
v 1.226726 0.365320 -0.564803
v 1.226726 2.271762 -0.552177
v 1.226726 1.639334 0.076062
v 1.226726 0.673629 1.035372
v 1.226726 1.321708 0.391585
v 1.226726 1.321708 -0.242145
v 1.226726 0.365320 0.722380
v 1.226726 1.006185 0.076062
v 1.226726 1.949375 -0.875154
v -1.063960 0.617994 1.341639
v 0.580400 2.271762 1.341639
v 0.903680 1.959137 1.341639
v -0.743264 0.365320 1.341639
v -1.315197 0.673629 1.035372
v -1.315197 2.271762 -0.552177
v -1.315197 1.949375 -0.875154
v -1.315197 0.365320 0.722381
v -1.315197 1.321708 -0.242145
v -1.315197 0.689856 -0.875154
v -1.315197 1.639334 0.076062
v -1.315197 2.271762 0.709647
v -1.315197 1.965495 1.035372
v -1.315197 1.006185 0.076062
v -1.315197 1.321708 0.391585
v -1.315197 0.365320 -0.564803
v 0.903680 0.680029 1.341639
v -0.730218 2.271762 1.341639
v -0.064474 1.623198 1.341639
v 0.245003 1.321708 1.341639
v -1.063960 2.020762 1.341639
v 0.593038 0.365320 1.341639
v -0.364250 1.321708 1.341639
v -0.064474 1.022214 1.341639
v 0.580400 2.271762 -1.200283
v -1.063960 0.617993 -1.200283
v -0.743264 0.365320 -1.200283
v 0.903680 1.959137 -1.200283
v 0.903680 0.680028 -1.200283
v -0.064474 1.623198 -1.200283
v -0.730218 2.271762 -1.200283
v 0.245003 1.321707 -1.200283
v 0.593037 0.365320 -1.200283
v -1.063960 2.020762 -1.200283
v -0.364250 1.321707 -1.200283
v -0.064474 1.022214 -1.200283
v -1.063960 2.020762 1.272588
v -1.063960 0.617994 1.272588
v -0.364250 1.321708 1.272588
v 0.593038 0.365320 1.272588
v -0.743264 0.365320 1.272588
v 0.245003 1.321708 1.272588
v 0.903680 1.959137 1.272588
v 0.903680 0.680029 1.272588
v 0.580400 2.271762 1.272588
v -0.730218 2.271762 1.272588
v -0.064474 1.623198 1.272588
v -0.064474 1.022214 1.272588
v -0.730218 2.271762 -1.131232
v 0.580400 2.271762 -1.131232
v -1.063960 2.020762 -1.131232
v -1.063960 0.617993 -1.131232
v -0.364250 1.321707 -1.131232
v 0.245003 1.321707 -1.131232
v 0.903680 1.959137 -1.131232
v 0.903680 0.680028 -1.131232
v -0.064474 1.623198 -1.131232
v -0.743264 0.365320 -1.131232
v 0.593037 0.365320 -1.131232
v -0.064474 1.022214 -1.131232
v 1.226726 2.271762 0.709647
v 1.226726 0.689855 -0.875154
v 1.226726 1.965495 1.035372
v 1.226726 0.365320 -0.564803
v 1.226726 2.271762 -0.552177
v 1.226726 1.639334 0.076062
v 1.226726 0.673629 1.035372
v 1.226726 1.321708 0.391585
v 1.226726 1.321708 -0.242145
v 1.226726 0.365320 0.722380
v 1.226726 1.006185 0.076062
v 1.226726 1.949375 -0.875154
v -1.315197 0.673629 1.035372
v -1.315197 2.271762 -0.552177
v -1.315197 1.949375 -0.875154
v -1.315197 0.365320 0.722381
v -1.315197 1.321708 -0.242145
v -1.315197 0.689856 -0.875154
v -1.315197 1.639334 0.076062
v -1.315197 2.271762 0.709647
v -1.315197 1.965495 1.035372
v -1.315197 1.006185 0.076062
v -1.315197 1.321708 0.391585
v -1.315197 0.365320 -0.564803
v 1.138110 2.271762 -0.552177
v 1.138110 2.271762 0.709647
v 1.138110 1.949375 -0.875154
v 1.138110 0.689855 -0.875154
v 1.138110 1.321708 -0.242145
v 1.138110 1.321708 0.391585
v 1.138110 1.965495 1.035372
v 1.138110 1.639334 0.076062
v 1.138110 0.673629 1.035372
v 1.138110 0.365320 -0.564803
v 1.138110 0.365320 0.722380
v 1.138110 1.006185 0.076062
v -1.226582 1.965495 1.035372
v -1.226582 0.673629 1.035372
v -1.226582 2.271762 0.709647
v -1.226582 2.271762 -0.552177
v -1.226582 1.321708 0.391585
v -1.226582 1.321708 -0.242145
v -1.226582 1.949375 -0.875154
v -1.226582 0.689856 -0.875154
v -1.226582 1.639334 0.076062
v -1.226582 0.365320 0.722381
v -1.226582 1.006185 0.076062
v -1.226582 0.365320 -0.564803
vt 0.640751 0.038799
vt 0.602358 0.038799
vt 0.602358 0.000406
vt 0.640751 0.000406
vt 0.262184 0.563414
vt 0.300579 0.563414
vt 0.300579 0.601563
vt 0.262184 0.601563
vt 0.036573 0.262173
vt 0.036569 0.300566
vt 0.000405 0.300563
vt 0.000409 0.262171
vt 0.331048 0.864141
vt 0.331048 0.902536
vt 0.301379 0.902536
vt 0.301379 0.864141
vt 0.337547 0.563409
vt 0.337547 0.601558
vt 0.301379 0.601558
vt 0.301379 0.563409
vt 0.337547 0.270910
vt 0.337547 0.300579
vt 0.301379 0.300579
vt 0.301379 0.270910
vt 0.331048 0.639006
vt 0.331048 0.668845
vt 0.301379 0.639006
vt 0.036567 0.037055
vt 0.036566 0.073462
vt 0.000401 0.037056
vt 0.037049 0.563414
vt 0.074214 0.563414
vt 0.037049 0.601563
vt 0.865876 0.038795
vt 0.827552 0.038796
vt 0.865875 0.000401
vt 0.902526 0.038794
vt 0.902524 0.000399
vt 0.000399 0.563414
vt 0.000399 0.601563
vt 0.036566 0.000406
vt 0.000399 0.000408
vt 0.331048 0.602356
vt 0.301379 0.602356
vt 0.563410 0.602356
vt 0.563410 0.639006
vt 0.526726 0.639006
vt 0.000399 0.301383
vt 0.037049 0.301383
vt 0.037049 0.331052
vt 0.000399 0.331052
vt 0.262184 0.301383
vt 0.232543 0.331052
vt 0.066888 0.331052
vt 0.563410 0.676171
vt 0.485626 0.751948
vt 0.449079 0.716580
vt 0.337547 0.038548
vt 0.301379 0.038548
vt 0.337547 0.301378
vt 0.337547 0.331047
vt 0.301379 0.331047
vt 0.301379 0.301378
vt 0.563410 0.864141
vt 0.563410 0.902536
vt 0.525233 0.864141
vt 0.300579 0.301383
vt 0.300579 0.331052
vt 0.262184 0.331052
vt 0.601559 0.864141
vt 0.601559 0.902536
vt 0.337547 0.000399
vt 0.301379 0.000399
vt 0.601559 0.639006
vt 0.563410 0.827223
vt 0.601559 0.602356
vt 0.037049 0.368923
vt 0.149991 0.413682
vt 0.114623 0.449083
vt 0.262184 0.370464
vt 0.601559 0.331047
vt 0.601559 0.563409
vt 0.563164 0.563409
vt 0.563164 0.331047
vt 0.601559 0.000399
vt 0.601559 0.038548
vt 0.563164 0.038548
vt 0.563164 0.000399
vt 0.601559 0.301378
vt 0.563164 0.301378
vt 0.601559 0.270910
vt 0.563164 0.270910
vt 0.300581 0.000400
vt 0.300580 0.037051
vt 0.262184 0.037050
vt 0.262184 0.000399
vt 0.902526 0.264418
vt 0.865877 0.264416
vt 0.865877 0.227456
vt 0.829470 0.264415
vt 0.752944 0.188387
vt 0.790208 0.151132
vt 0.262184 0.075376
vt 0.601559 0.300579
vt 0.563164 0.300579
vt 0.601559 0.601558
vt 0.563164 0.601558
vt 0.300581 0.262188
vt 0.300578 0.300584
vt 0.262182 0.300582
vt 0.262185 0.262187
vt 0.640754 0.264413
vt 0.602361 0.264414
vt 0.640754 0.225950
vt 0.640755 0.300578
vt 0.602362 0.300580
vt 0.865875 0.300582
vt 0.902524 0.300584
vt 0.225535 0.037049
vt 0.187427 0.149986
vt 0.149850 0.112729
vt 0.224044 0.262185
vt 0.964836 0.708121
vt 0.844799 0.587397
vt 0.964836 0.467472
vt 0.075035 0.262176
vt 0.715432 0.151128
vt 0.640755 0.225951
vt 0.715430 0.151128
vt 0.262186 0.224116
vt 0.073528 0.037055
vt 0.262188 0.224115
vt 0.262184 0.075378
vt 0.036575 0.226006
vt 0.112588 0.149988
vt 0.112581 0.149978
vt 0.036564 0.073462
vt 0.149860 0.187500
vt 0.149846 0.112733
vt 0.187437 0.149995
vt 0.075036 0.262177
vt 0.224042 0.262186
vt 0.331048 0.834500
vt 0.370460 0.864141
vt 0.988356 0.466828
vt 0.988356 0.607725
vt 0.976779 0.590686
vt 0.978912 0.485109
vt 0.368919 0.639006
vt 0.413678 0.751948
vt 0.829470 0.264414
vt 0.752944 0.188387
vt 0.676920 0.264412
vt 0.640752 0.076938
vt 0.149848 0.112733
vt 0.678821 0.038799
vt 0.865877 0.075444
vt 0.752940 0.113550
vt 0.752940 0.113550
vt 0.752940 0.113550
vt 0.640740 0.076950
vt 0.036574 0.226004
vt 0.856634 0.386944
vt 0.988916 0.301383
vt 0.979971 0.320108
vt 0.876770 0.382645
vt 0.449079 0.787551
vt 0.996985 0.911806
vt 0.868093 0.857327
vt 0.888274 0.853142
vt 0.983716 0.895923
vt 0.988916 0.440665
vt 0.975563 0.425050
vt 0.262184 0.525237
vt 0.996985 0.774099
vt 0.988060 0.792854
vt 0.225266 0.563414
vt 0.037049 0.526730
vt 0.725080 0.301383
vt 0.725080 0.466029
vt 0.714204 0.448330
vt 0.717729 0.320582
vt 0.115820 0.919163
vt 0.000399 0.842951
vt 0.020787 0.840507
vt 0.104974 0.901378
vt 0.185594 0.449083
vt 0.149991 0.485630
vt 0.861102 0.518863
vt 0.881815 0.520065
vt 0.907582 0.424412
vt 0.793371 0.535675
vt 0.682741 0.424412
vt 0.740280 0.587397
vt 0.627282 0.697479
vt 0.627282 0.478044
vt 0.680573 0.751468
vt 0.793371 0.638776
vt 0.909820 0.751468
vt 0.682741 0.424412
vt 0.793371 0.535675
vt 0.907582 0.424412
vt 0.909820 0.751468
vt 0.793371 0.638776
vt 0.680573 0.751468
vt 0.627282 0.697479
vt 0.740280 0.587397
vt 0.627282 0.478044
vt 0.964836 0.467472
vt 0.844799 0.587397
vt 0.964836 0.708121
vt 0.602358 0.551366
vt 0.725058 0.466828
vt 0.717703 0.486017
vt 0.622761 0.548803
vt 0.733834 0.916079
vt 0.602358 0.862982
vt 0.622413 0.858514
vt 0.720555 0.900457
vt 0.999601 0.632302
vt 0.999601 0.769850
vt 0.986317 0.753968
vt 0.990658 0.651032
vt 0.870559 0.715248
vt 0.890754 0.711098
vt 0.725058 0.631504
vt 0.714189 0.613782
vt 0.602358 0.386259
vt 0.622763 0.383638
vt 0.733834 0.775943
vt 0.724976 0.794804
vt 0.115820 0.763820
vt 0.108459 0.783018
vt 0.737395 0.828340
vt 0.867295 0.774099
vt 0.855079 0.797618
vt 0.763962 0.829711
vt 0.737395 0.718239
vt 0.869761 0.632302
vt 0.858289 0.656333
vt 0.763362 0.712737
vt 0.725879 0.355522
vt 0.855836 0.301383
vt 0.843620 0.324889
vt 0.752444 0.356915
vt 0.149864 0.187497
vt 0.120525 0.763022
vt 0.000399 0.684906
vt 0.026657 0.681711
vt 0.106620 0.740300
vt 0.736596 0.775145
vt 0.602358 0.719672
vt 0.628306 0.714127
vt 0.719607 0.754878
vt 0.239587 0.763791
vt 0.239587 0.921452
vt 0.225673 0.898754
vt 0.230055 0.788567
vt 0.736596 0.632302
vt 0.725132 0.656351
vt 0.790200 0.151123
vt 0.860303 0.609449
vt 0.725857 0.553809
vt 0.751829 0.548322
vt 0.843288 0.589185
vt 0.865895 0.227439
vt 0.678820 0.038799
vt 0.865876 0.075443
vt 0.225522 0.037035
vt 0.073529 0.037056
vt 0.149855 0.112723
vt 0.827553 0.038797
vt 0.676920 0.264412
vt 0.901297 0.424412
vt 0.792603 0.532907
vt 0.684827 0.424412
vt 0.682661 0.751468
vt 0.792603 0.641526
vt 0.903481 0.751468
vt 0.957176 0.698577
vt 0.846732 0.587397
vt 0.957176 0.476953
vt 0.629419 0.479719
vt 0.738014 0.587397
vt 0.629419 0.695793
vt 0.684827 0.424412
vt 0.792603 0.532907
vt 0.901297 0.424412
vt 0.903481 0.751468
vt 0.792603 0.641526
vt 0.682661 0.751468
vt 0.629419 0.695793
vt 0.738014 0.587397
vt 0.629419 0.479719
vt 0.957176 0.476953
vt 0.846732 0.587397
vt 0.957176 0.698577
vt 0.869761 0.773301
vt 0.852786 0.752983
vt 0.121323 0.844790
vt 0.147621 0.841608
vt 0.867295 0.917637
vt 0.852265 0.895744
vt 0.241471 0.602362
vt 0.241471 0.762993
vt 0.227559 0.740300
vt 0.231968 0.627145
vt 0.121323 0.685230
vt 0.147584 0.681960
vt 0.855836 0.444994
vt 0.840816 0.423096
vt 0.120525 0.602362
vt 0.111017 0.627134
vt 0.860303 0.466828
vt 0.848809 0.490832
vn -1.0000 0.0000 0.0000
vn 0.0000 0.0000 -1.0000
vn 1.0000 0.0000 0.0000
vn 0.0000 0.0000 1.0000
vn 0.0000 -1.0000 0.0000
vn 0.0000 1.0000 0.0000
vn 0.6978 0.7163 0.0000
vn 0.6954 -0.7186 0.0000
vn -0.7068 -0.7074 0.0000
vn -0.7091 0.7051 0.0000
vn 0.0000 -0.7101 -0.7041
vn 0.0000 0.7048 0.7095
vn 0.0000 -0.7071 0.7071
vn 0.0000 0.7078 -0.7065
usemtl box
s off
f 38/1/1 34/2/1 4/3/1 10/4/1
f 27/5/2 25/6/2 8/7/2 11/8/2
f 47/9/3 46/10/3 6/11/3 12/12/3
f 21/13/4 20/14/4 2/15/4 9/16/4
f 52/17/5 54/18/5 5/19/5 26/20/5
f 49/21/6 53/22/6 2/23/6 20/24/6
f 24/25/4 69/26/4 16/27/4
f 48/28/3 63/29/3 15/30/3
f 28/31/2 97/32/2 14/33/2
f 39/34/1 78/35/1 13/36/1
f 33/37/1 39/34/1 13/36/1 3/38/1
f 29/39/2 28/31/2 14/33/2 7/40/2
f 54/41/3 48/28/3 15/30/3 5/42/3
f 19/43/4 24/25/4 16/27/4 1/44/4
f 26/45/4 32/46/4 90/47/4
f 3/48/2 13/49/2 23/50/2 17/51/2
f 13/49/2 10/52/2 102/53/2 94/54/2
f 32/46/4 85/55/4 88/56/4 92/57/4 90/47/4
f 51/58/6 49/21/6 20/24/6 30/59/6
f 45/60/5 50/61/5 19/62/5 1/63/5
f 31/64/4 30/65/4 70/66/4
f 10/52/2 4/67/2 18/68/2 22/69/2
f 12/70/4 6/71/4 30/65/4 31/64/4
f 46/72/6 51/58/6 30/59/6 6/73/6
f 15/74/4 12/70/4 71/75/4 85/55/4
f 5/76/4 15/74/4 32/46/4 26/45/4
f 17/51/2 23/50/2 95/77/2
f 23/50/2 94/54/2 103/78/2 104/79/2 95/77/2
f 50/61/5 52/17/5 26/20/5 19/62/5
f 22/69/2 18/68/2 99/80/2
f 17/81/5 29/82/5 44/83/5 42/84/5
f 8/85/6 25/86/6 43/87/6 36/88/6
f 3/89/5 17/81/5 42/84/5 33/90/5
f 25/86/6 18/91/6 41/92/6 43/87/6
f 7/93/3 14/94/3 40/95/3 35/96/3
f 45/97/1 56/98/1 76/99/1
f 56/98/1 73/100/1 83/101/1 82/102/1 76/99/1
f 14/94/3 58/103/3 40/95/3
f 18/91/6 4/104/6 34/105/6 41/92/6
f 29/82/5 7/106/5 35/107/5 44/83/5
f 11/108/3 8/109/3 36/110/3 37/111/3
f 55/112/1 53/113/1 80/114/1
f 9/115/1 2/116/1 53/113/1 55/112/1
f 16/117/1 73/100/1 56/98/1
f 1/118/1 16/117/1 56/98/1 45/97/1
f 42/84/5 44/83/5 52/17/5 50/61/5
f 36/88/6 43/87/6 51/58/6 46/72/6
f 33/90/5 42/84/5 50/61/5 45/60/5
f 43/87/6 41/92/6 49/21/6 51/58/6
f 35/96/3 40/95/3 60/119/3
f 40/95/3 58/103/3 65/120/3 67/121/3 60/119/3
f 41/92/6 34/105/6 53/22/6 49/21/6
f 44/83/5 35/107/5 54/18/5 52/17/5
f 37/111/3 36/110/3 61/122/3
f 106/123/4 107/124/4 105/125/4
f 57/126/3 46/10/3 47/9/3
f 79/127/4 80/114/4 148/128/4 147/129/4
f 58/103/3 14/94/3 11/108/3 68/130/3
f 60/119/3 66/131/3 54/41/3 35/96/3
f 58/103/4 68/130/4 140/132/4 130/133/4
f 12/12/3 59/134/3 47/9/3
f 63/29/4 64/135/4 136/136/4 135/137/4
f 61/122/3 62/138/3 65/120/3 68/130/3 37/111/3
f 61/122/3 36/110/3 46/10/3 57/126/3
f 64/135/3 62/138/3 57/126/3 47/9/3 59/134/3
f 15/30/3 63/29/3 59/134/3 12/12/3
f 66/131/3 67/139/3 64/135/3 63/29/3 48/28/3
f 68/130/4 65/120/4 137/140/4 140/132/4
f 68/130/3 11/108/3 37/111/3
f 54/41/3 66/131/3 48/28/3
f 61/122/4 57/126/4 129/141/4 133/142/4
f 16/27/4 69/26/4 89/143/4 9/16/4
f 70/66/4 30/65/4 20/14/4 86/144/4
f 98/145/7 99/146/7 117/147/7 125/148/7
f 72/149/4 92/57/4 91/150/4 69/26/4 24/25/4
f 71/75/4 12/70/4 31/64/4
f 19/43/4 72/149/4 24/25/4
f 83/101/4 73/100/4 141/151/4 151/152/4
f 73/100/1 16/117/1 9/115/1 81/153/1
f 74/154/1 34/2/1 38/1/1
f 64/135/4 67/139/4 139/155/4 136/136/4
f 10/4/1 75/156/1 38/1/1
f 76/99/1 84/157/1 33/37/1 45/97/1
f 79/127/4 77/158/4 145/159/4 147/129/4
f 77/158/1 79/127/1 74/154/1 38/1/1 75/156/1
f 13/36/1 78/35/1 75/156/1 10/4/1
f 80/114/1 79/127/1 83/101/1 81/153/1 55/112/1
f 80/114/1 53/113/1 34/2/1 74/154/1
f 84/157/1 82/102/1 77/160/1 78/35/1 39/34/1
f 80/114/4 74/154/4 142/161/4 148/128/4
f 81/153/1 9/115/1 55/112/1
f 33/37/1 84/157/1 39/34/1
f 59/134/4 63/29/4 135/137/4 131/162/4
f 72/163/6 90/164/6 108/165/6 109/166/6
f 87/167/4 88/56/4 71/75/4 31/64/4 70/66/4
f 100/168/8 96/169/8 123/170/8 122/171/8
f 85/55/4 32/46/4 15/74/4
f 86/144/4 20/14/4 21/13/4
f 89/143/4 91/150/4 87/167/4 86/144/4 21/13/4
f 91/150/4 92/57/4 88/56/4 87/167/4
f 9/16/4 89/143/4 21/13/4
f 92/172/8 72/163/8 109/166/8 116/173/8
f 90/47/4 72/149/4 19/43/4 26/45/4
f 93/174/2 25/6/2 27/5/2
f 94/54/2 23/50/2 13/49/2
f 97/175/7 100/168/7 122/171/7 124/176/7
f 11/8/2 96/177/2 27/5/2
f 95/77/2 101/178/2 29/39/2 17/51/2
f 94/179/3 102/180/3 119/181/3 120/182/3
f 14/33/2 97/32/2 96/177/2 11/8/2
f 99/80/2 18/68/2 25/6/2 93/174/2
f 86/183/7 87/184/7 115/185/7 114/186/7
f 99/80/2 98/187/2 103/78/2 102/53/2 22/69/2
f 100/188/2 98/187/2 93/174/2 27/5/2 96/177/2
f 29/39/2 101/178/2 28/31/2
f 102/53/2 10/52/2 22/69/2
f 101/178/2 104/79/2 100/188/2 97/32/2 28/31/2
f 104/79/2 103/78/2 98/187/2 100/188/2
f 99/146/5 93/189/5 118/190/5 117/147/5
f 114/191/4 115/192/4 113/193/4
f 110/194/4 112/195/4 111/196/4
f 108/197/4 116/198/4 109/199/4
f 118/200/2 125/201/2 117/202/2
f 126/203/2 128/204/2 127/205/2
f 124/206/2 122/207/2 123/208/2
f 119/209/2 121/210/2 120/211/2
f 91/212/9 89/213/9 105/214/9 107/215/9
f 96/169/1 97/175/1 124/176/1 123/170/1
f 104/216/9 101/217/9 127/218/9 128/219/9
f 71/220/8 88/221/8 110/222/8 111/223/8
f 88/221/7 85/224/7 112/225/7 110/222/7
f 89/213/3 69/226/3 106/227/3 105/214/3
f 93/189/10 98/145/10 125/148/10 118/190/10
f 103/228/10 94/179/10 120/182/10 121/229/10
f 101/217/6 95/230/6 126/231/6 127/218/6
f 85/224/1 71/220/1 111/223/1 112/225/1
f 102/180/9 103/228/9 121/229/9 119/181/9
f 70/232/5 86/183/5 114/186/5 113/233/5
f 90/164/9 92/172/9 116/173/9 108/165/9
f 87/184/10 70/232/10 113/233/10 115/185/10
f 95/230/8 104/216/8 128/219/8 126/231/8
f 69/226/10 91/212/10 107/215/10 106/227/10
f 140/234/11 137/235/11 157/236/11 155/237/11
f 133/238/5 129/239/5 154/240/5 153/241/5
f 142/242/12 147/243/12 173/244/12 168/245/12
f 139/155/3 137/140/3 134/246/3 136/136/3
f 135/247/12 136/248/12 158/249/12 161/250/12
f 150/251/13 152/252/13 176/253/13 175/254/13
f 143/255/4 146/256/4 172/257/4 171/258/4
f 152/252/6 144/259/6 174/260/6 176/253/6
f 150/261/1 151/152/1 147/129/1 145/159/1
f 139/262/11 138/263/11 163/264/11 164/265/11
f 62/138/4 61/122/4 133/142/4 134/246/4
f 65/120/4 58/103/4 130/133/4 137/140/4
f 62/138/4 64/135/4 136/136/4 134/246/4
f 76/99/4 82/102/4 150/261/4 144/266/4
f 77/158/4 75/156/4 143/267/4 145/159/4
f 83/101/4 79/127/4 147/129/4 151/152/4
f 65/120/4 62/138/4 134/246/4 137/140/4
f 84/157/4 76/99/4 144/266/4 152/268/4
f 66/131/4 60/119/4 132/269/4 138/270/4
f 82/102/4 84/157/4 152/268/4 150/261/4
f 60/119/4 67/121/4 139/271/4 132/269/4
f 77/160/4 82/102/4 150/261/4 145/159/4
f 64/135/4 59/134/4 131/162/4 136/136/4
f 82/102/4 83/101/4 151/152/4 150/261/4
f 75/156/4 78/35/4 146/272/4 143/267/4
f 67/139/4 66/131/4 138/270/4 139/271/4
f 74/154/4 79/127/4 147/129/4 142/161/4
f 67/121/4 65/120/4 137/140/4 139/155/4
f 57/126/4 62/138/4 134/246/4 129/141/4
f 73/100/4 81/153/4 149/273/4 141/151/4
f 81/153/4 83/101/4 151/152/4 149/273/4
f 78/35/4 77/160/4 145/159/4 146/272/4
f 154/274/3 160/275/3 153/276/3
f 162/277/3 164/278/3 163/279/3
f 161/280/3 158/281/3 159/282/3
f 155/283/3 157/284/3 156/285/3
f 168/286/1 173/287/1 167/288/1
f 174/289/1 175/290/1 176/291/1
f 172/292/1 170/293/1 171/294/1
f 165/295/1 169/296/1 166/297/1
f 134/298/12 133/238/12 153/241/12 160/299/12
f 146/256/14 145/300/14 170/301/14 172/257/14
f 130/302/4 140/234/4 155/237/4 156/303/4
f 141/304/2 149/305/2 165/306/2 166/307/2
f 149/305/13 151/308/13 169/309/13 165/306/13
f 137/235/14 130/302/14 156/303/14 157/236/14
f 148/310/5 142/242/5 168/245/5 167/311/5
f 147/243/14 148/310/14 167/311/14 173/244/14
f 136/248/13 131/312/13 159/313/13 158/249/13
f 151/308/12 141/304/12 166/307/12 169/309/12
f 138/263/6 132/314/6 162/315/6 163/264/6
f 144/259/11 150/251/11 175/254/11 174/260/11
f 129/239/14 134/298/14 160/299/14 154/240/14
f 145/300/11 143/255/11 171/258/11 170/301/11
f 132/314/13 139/262/13 164/265/13 162/315/13
f 131/312/2 135/247/2 161/250/2 159/313/2
