# Blender v2.82 (sub 7) OBJ File: ''
# www.blender.org
mtllib gate.mtl
o Cube_Cube.001
v -0.506475 0.033271 0.238349
v -0.506475 2.163951 0.238349
v -0.506475 0.033271 -0.227268
v -0.506475 2.163951 -0.227268
v 0.479359 0.033271 0.238349
v 0.479359 2.033271 0.238349
v 0.479359 0.033271 -0.227268
v 0.479359 2.033271 -0.227268
v -0.506475 0.033271 -0.077183
v -0.506475 2.163951 -0.077183
v 0.479359 0.033271 -0.077183
v 0.479359 2.033271 -0.077183
v -0.506475 0.033271 0.088471
v 0.479359 2.033271 0.088471
v -0.506475 2.163951 0.088471
v 0.479359 0.033271 0.088471
v -0.506475 1.707982 0.088471
v -0.506475 1.707982 -0.077183
v 0.479359 1.707982 -0.077183
v 0.479359 1.707982 0.088471
v -10.306355 1.884602 0.073624
v -10.306355 2.123578 0.073624
v -10.306355 1.884602 -0.072485
v -10.306355 2.123578 -0.072485
v -0.206943 1.884602 0.073624
v -0.206943 2.123578 0.073624
v -0.206943 1.884602 -0.072485
v -0.206943 2.123578 -0.072485
vt 0.267030 0.577810
vt 0.267030 0.482992
vt 0.299509 0.482992
vt 0.299509 0.577810
vt 0.518748 0.540159
vt 0.518748 0.677414
vt 0.389911 0.668996
vt 0.389911 0.540159
vt 0.332107 0.482992
vt 0.332107 0.571995
vt 0.299673 0.571995
vt 0.299673 0.482992
vt 0.238404 0.952070
vt 0.238404 0.843852
vt 0.346622 0.836781
vt 0.346622 0.952070
vt 0.518748 0.441254
vt 0.389911 0.441254
vt 0.389911 0.394304
vt 0.518748 0.394304
vt 0.525394 0.833544
vt 0.414586 0.826301
vt 0.417220 0.786007
vt 0.528028 0.793250
vt 0.528028 0.954568
vt 0.417219 0.961806
vt 0.414584 0.921456
vt 0.525392 0.914219
vt 0.389911 0.493145
vt 0.518748 0.493145
vt 0.299629 0.666977
vt 0.299629 0.577975
vt 0.332107 0.577975
vt 0.332107 0.666977
vt 0.303043 0.747484
vt 0.303043 0.672958
vt 0.338890 0.672958
vt 0.338890 0.747484
vt 0.267030 0.672793
vt 0.267030 0.577975
vt 0.299464 0.577975
vt 0.299464 0.672793
vt 0.525394 0.851566
vt 0.414585 0.851563
vt 0.525393 0.896196
vt 0.414584 0.896194
vt 0.302878 0.747484
vt 0.267030 0.747484
vt 0.267030 0.672958
vt 0.302878 0.672958
vt 0.218277 0.077351
vt 0.218277 0.094128
vt 0.168397 0.094128
vt 0.168397 0.077351
vt 0.116680 0.000056
vt 0.134132 0.000069
vt 0.134132 0.999958
vt 0.116679 0.999944
vt 0.198846 0.055782
vt 0.182069 0.055782
vt 0.182069 0.005902
vt 0.198846 0.005902
vt 0.067088 0.999944
vt 0.049635 0.999931
vt 0.049634 0.000042
vt 0.067087 0.000056
vt 0.000042 0.999931
vt 0.000042 0.000042
vn -1.0000 0.0000 0.0000
vn 0.0000 0.0000 -1.0000
vn 1.0000 0.0000 0.0000
vn 0.0000 0.0000 1.0000
vn 0.0000 -1.0000 0.0000
vn 0.1314 0.9913 0.0000
vn 0.0000 1.0000 0.0000
usemtl Gate
s off
f 9/1/1 10/2/1 4/3/1 3/4/1
f 3/5/2 4/6/2 8/7/2 7/8/2
f 16/9/3 14/10/3 6/11/3 5/12/3
f 5/13/4 6/14/4 2/15/4 1/16/4
f 13/17/5 16/18/5 5/19/5 1/20/5
f 14/21/6 15/22/6 2/23/6 6/24/6
f 8/25/6 4/26/6 10/27/6 12/28/6
f 3/5/5 7/8/5 11/29/5 9/30/5
f 7/31/3 8/32/3 12/33/3 11/34/3
f 20/35/3 16/36/3 11/37/3 19/38/3
f 1/39/1 2/40/1 15/41/1 13/42/1
f 15/22/2 14/21/2 20/43/2 17/44/2
f 9/30/5 11/29/5 16/18/5 13/17/5
f 19/45/7 18/46/7 17/44/7 20/43/7
f 9/47/1 13/48/1 17/49/1 18/50/1
f 12/28/4 10/27/4 18/46/4 19/45/4
f 21/51/1 22/52/1 24/53/1 23/54/1
f 23/55/2 24/56/2 28/57/2 27/58/2
f 27/59/3 28/60/3 26/61/3 25/62/3
f 25/63/4 26/64/4 22/65/4 21/66/4
f 23/55/5 27/58/5 25/63/5 21/66/5
f 28/67/7 24/68/7 22/65/7 26/64/7
