# Blender v2.93.0 OBJ File: ''
# www.blender.org
mtllib mansion-collision.mtl
o Cube_Cube.001
v -1.518476 0.010699 0.993437
v -1.518476 1.039378 0.993437
v -1.518476 0.010699 -1.282208
v -1.518476 1.039378 -1.282208
v -1.518476 0.010699 0.741823
v 0.508933 1.039378 0.993437
v 0.508933 0.010699 -1.282208
v 0.508933 1.039378 -1.282208
v -1.518476 0.010699 -0.223310
v -1.518476 1.039378 -0.223310
v 0.508933 1.039378 -0.223310
v 1.760672 0.010699 -1.282208
v 1.760672 1.039378 -1.282208
v 1.760672 0.010699 -0.223310
v 1.760672 1.039378 -0.223310
v -1.518476 0.524957 0.993437
v -1.518476 0.524957 -1.282208
v 0.508933 0.524957 -1.282208
v 0.508933 0.524957 0.993437
v 0.510150 0.524957 -0.223118
v -1.518476 0.524957 -0.223310
v 1.760672 0.524957 -1.282208
v 1.760672 0.524957 -0.223310
v -0.518476 0.010699 -1.282208
v -0.518476 1.039378 -1.282208
v -0.518476 0.010699 0.993437
v -0.518476 1.039378 0.993437
v -0.518476 0.524957 0.993437
v -0.518476 0.524957 -1.282208
v 0.508933 1.039378 0.741823
v -1.518476 1.039378 0.741823
v -1.518476 0.524957 0.741823
v 0.510150 0.524957 0.744547
v -0.518476 1.039378 0.741823
v -0.518476 0.010699 0.744547
v -0.518476 0.524957 0.747270
v 0.504088 0.006420 -0.365730
v -1.518476 0.067642 -1.282208
v 0.508933 0.067642 -1.282208
v 0.504088 0.539375 -0.365730
v -1.518476 0.067642 -0.223310
v 1.760672 0.067642 -1.282208
v 1.760672 0.067642 -0.223310
v -1.518476 0.067642 0.993437
v -0.518476 0.067642 -1.282208
v -0.518476 0.067642 0.993437
v -1.518476 0.067642 0.741823
v -0.518476 0.067642 0.744958
v 0.510150 0.067642 0.744547
v -0.518421 0.010000 1.008669
v 0.510204 0.010000 1.008669
v -0.518421 0.066943 1.009081
v 0.510204 0.066943 1.008669
v 0.504088 0.006420 1.018601
v 0.504088 0.539375 1.018601
v 2.097251 0.006420 1.018601
v 2.097251 0.539375 1.018601
v 2.097251 0.006420 -0.365730
v 2.097251 0.539375 -0.365730
v 0.504088 0.756251 -0.365730
v -1.089074 1.527243 -0.691276
v -1.089074 1.527243 -1.282208
v -0.947878 1.527243 -1.282208
v -0.640128 1.527243 -1.282208
v -0.640128 1.527243 -0.691276
v -0.640128 1.527243 -0.602750
v -1.089074 1.527243 0.719114
v -1.089074 1.527243 0.467500
v -0.947878 1.527243 0.719114
v -0.947878 1.527243 -0.691276
v -0.411121 1.527243 -1.282208
v -0.411121 1.527243 -0.691276
v -0.947878 1.527243 0.467500
vt 0.499980 0.133671
vt 0.625000 0.133671
vt 0.625000 0.250000
vt 0.499980 0.250000
vt 0.499980 0.375000
vt 0.625000 0.375000
vt 0.625000 0.500000
vt 0.499980 0.500000
vt 0.499980 0.722358
vt 0.625000 0.722358
vt 0.625000 0.750000
vt 0.499980 0.750000
vt 0.499980 0.875000
vt 0.625000 0.875000
vt 0.625000 1.000000
vt 0.499980 1.000000
vt 0.625000 0.027642
vt 0.625000 0.000000
vt 0.625000 0.000000
vt 0.625000 0.027642
vt 0.625000 0.250000
vt 0.625000 0.375000
vt 0.625000 0.133671
vt 0.625000 0.500000
vt 0.499980 0.500000
vt 0.499980 0.027642
vt 0.625000 0.616329
vt 0.499980 0.616329
vt 0.625000 0.616329
vt 0.499980 0.616330
vt 0.393895 0.500000
vt 0.393895 0.616329
vt 0.393895 0.027642
vt 0.393895 0.133671
vt 0.393895 0.500000
vt 0.393895 0.875000
vt 0.393895 1.000000
vt 0.393895 0.375000
vt 0.393895 0.250000
vt 0.393895 0.000000
vt 0.499980 0.000000
vt 0.625000 0.500000
vt 0.750000 0.722358
vt 0.750000 0.750000
vt 0.625000 0.500000
vt 0.375000 0.875000
vt 0.375000 0.875000
vt 0.393895 0.875000
vt 0.499980 0.875000
vt 0.393895 0.875000
vt 0.499980 0.875000
vt 0.375000 0.000000
vt 0.375000 0.027642
vt 0.375000 0.250000
vt 0.375000 0.375000
vt 0.375000 0.133671
vt 0.375000 0.500000
vt 0.375000 1.000000
vt 0.375000 0.500000
vt 0.375000 0.616329
vt 0.393895 0.875000
vt 0.375000 0.875000
vt 0.375000 0.875000
vt 0.393895 0.875000
vt 0.375000 1.000000
vt 0.625000 1.000000
vt 0.625000 1.000000
vt 0.375000 1.000000
vt 0.375000 0.250000
vt 0.625000 0.250000
vt 0.625000 0.500000
vt 0.375000 0.500000
vt 0.625000 0.750000
vt 0.375000 0.750000
vt 0.625000 0.000000
vt 0.625000 0.250000
vt 0.625000 1.000000
vt 0.625000 0.500000
vt 0.625000 0.616329
vt 0.750000 0.616329
vt 0.750000 0.722358
vt 0.625000 0.722358
vt 0.875000 0.722358
vt 0.875000 0.750000
vt 0.750000 0.750000
vt 0.750000 0.500000
vt 0.875000 0.500000
vt 0.875000 0.616329
vt 0.625000 0.616329
vt 0.625000 0.875000
vt 0.625000 1.000000
vn -1.0000 0.0000 0.0000
vn 0.0000 0.0000 -1.0000
vn 1.0000 0.0012 0.0024
vn 0.0000 0.0000 1.0000
vn -0.7507 0.6607 0.0000
vn 1.0000 0.0000 0.0000
vn 0.0001 0.0002 1.0000
vn 0.0000 1.0000 0.0000
vn 1.0000 0.0024 0.0000
vn 0.0000 -1.0000 -0.0000
vn 0.0015 -0.0025 1.0000
vn 0.0002 -0.0036 1.0000
vn 0.0000 1.0000 0.0026
vn 0.0000 0.9879 0.1548
vn 0.1349 0.9909 0.0000
vn 0.2192 0.9757 0.0000
vn 0.0000 0.4901 0.8717
vn 0.0000 0.6922 0.7217
vn 0.7507 0.6607 0.0000
vn 0.2488 0.9175 0.3104
vn 0.3908 0.9205 0.0000
usemtl None
s off
f 21/1/1 10/2/1 4/3/1 17/4/1
f 29/5/2 25/6/2 8/7/2 18/8/2
f 33/9/3 30/10/3 6/11/3 19/12/3
f 28/13/4 27/14/4 2/15/4 16/16/4
f 31/17/5 2/18/5 67/19/5 68/20/5
f 25/6/2 4/3/2 62/21/2 63/22/2
f 4/3/5 10/2/5 61/23/5 62/21/5
f 18/8/2 8/7/2 13/24/2 22/25/2
f 32/26/1 31/17/1 10/2/1 21/1/1
f 22/25/6 13/24/6 15/27/6 23/28/6
f 10/2/5 31/17/5 68/20/5 61/23/5
f 11/29/7 20/30/7 23/28/7 15/27/7
f 42/31/6 22/25/6 23/28/6 43/32/6
f 47/33/1 32/26/1 21/1/1 41/34/1
f 39/35/2 18/8/2 22/25/2 42/31/2
f 46/36/4 28/13/4 16/16/4 44/37/4
f 45/38/2 29/5/2 18/8/2 39/35/2
f 41/34/1 21/1/1 17/4/1 38/39/1
f 38/39/2 17/4/2 29/5/2 45/38/2
f 44/40/1 16/41/1 32/26/1 47/33/1
f 8/7/2 25/6/2 63/22/2 64/42/2
f 30/10/8 34/43/8 27/44/8 6/11/8
f 19/12/4 6/11/4 27/14/4 28/13/4
f 17/4/2 4/3/2 25/6/2 29/5/2
f 16/41/1 2/18/1 31/17/1 32/26/1
f 13/24/2 8/7/2 64/42/2 71/45/2
f 20/30/9 11/29/9 30/10/9 33/9/9
f 46/36/6 26/46/6 35/47/6 48/48/6
f 19/12/10 28/13/10 36/49/10 33/9/10
f 36/49/11 48/48/11 49/50/11 33/51/11
f 28/13/6 46/36/6 48/48/6 36/49/6
f 1/52/1 44/40/1 47/33/1 5/53/1
f 3/54/2 38/39/2 45/38/2 24/55/2
f 9/56/1 41/34/1 38/39/1 3/54/1
f 24/55/2 45/38/2 39/35/2 7/57/2
f 26/46/4 46/36/4 44/37/4 1/58/4
f 7/57/2 39/35/2 42/31/2 12/59/2
f 5/53/1 47/33/1 41/34/1 9/56/1
f 12/59/6 42/31/6 43/32/6 14/60/6
f 52/61/12 50/62/12 51/63/12 53/64/12
f 49/50/13 48/48/13 52/61/13 53/64/13
f 54/65/1 55/66/1 40/67/1 37/68/1
f 37/69/2 40/70/2 59/71/2 58/72/2
f 58/72/6 59/71/6 57/73/6 56/74/6
f 56/74/4 57/73/4 55/66/4 54/65/4
f 40/70/1 55/75/1 60/76/1
f 55/66/14 57/73/14 60/77/14
f 59/71/2 40/70/2 60/78/2
f 57/73/15 59/71/15 60/78/15
f 65/79/8 70/80/8 73/81/8 66/82/8
f 73/81/8 68/83/8 67/84/8 69/85/8
f 63/86/8 62/87/8 61/88/8 70/80/8
f 64/42/8 65/79/8 72/89/8 71/45/8
f 64/42/8 63/86/8 70/80/8 65/79/8
f 70/80/8 61/88/8 68/83/8 73/81/8
f 15/27/16 13/24/16 71/45/16 72/89/16
f 2/15/17 27/14/17 69/90/17 67/91/17
f 11/29/18 15/27/18 72/89/18 65/79/18
f 27/44/19 34/43/19 73/81/19 69/85/19
f 34/43/20 30/10/20 66/82/20 73/81/20
f 30/10/21 11/29/21 65/79/21 66/82/21
