# Blender v2.93.0 OBJ File: 'mansion_inside.blend'
# www.blender.org
mtllib stairs_collision.mtl
o Cube_Cube.005
v -0.041713 -0.000316 0.428985
v -0.041713 0.325644 0.428985
v -0.041713 -0.000316 0.161889
v -0.041713 0.325644 0.161889
v 0.245297 -0.000316 0.428985
v 0.245297 0.325644 0.428985
v 0.245297 -0.000316 0.161889
v 0.245297 0.325644 0.161889
v -0.041713 -0.000316 -0.427499
v -0.041713 0.003304 -0.427499
v 0.245297 -0.000316 -0.427499
v 0.245297 0.003304 -0.427499
v -0.363237 -0.000316 0.428985
v -0.363237 0.483160 0.428985
v -0.363237 -0.000316 0.161889
v -0.363237 0.483160 0.161889
vt 0.875000 0.750000
vt 0.875000 0.500000
vt 0.875000 0.500000
vt 0.875000 0.750000
vt 0.625000 0.500000
vt 0.375000 0.500000
vt 0.375000 0.500000
vt 0.625000 0.500000
vt 0.625000 0.750000
vt 0.375000 0.750000
vt 0.625000 1.000000
vt 0.375000 1.000000
vt 0.125000 0.500000
vt 0.125000 0.750000
vt 0.375000 0.250000
vt 0.625000 0.250000
vt 0.125000 0.500000
vt 0.875000 0.500000
vt 0.375000 0.250000
vt 0.625000 0.250000
vt 0.375000 0.000000
vt 0.625000 0.000000
vt 0.625000 0.250000
vt 0.375000 0.250000
vt 0.125000 0.750000
vt 0.125000 0.500000
vt 0.625000 1.000000
vt 0.375000 1.000000
vn 0.4399 0.8980 0.0000
vn 1.0000 0.0000 0.0000
vn 0.0000 0.0000 1.0000
vn 0.0000 -1.0000 0.0000
vn 0.0000 1.0000 0.0000
vn 0.0000 0.0000 -1.0000
vn 0.0000 0.8774 -0.4798
vn -1.0000 0.0000 0.0000
usemtl None
s off
f 2/1/1 4/2/1 16/3/1 14/4/1
f 8/5/2 7/6/2 11/7/2 12/8/2
f 7/6/2 8/5/2 6/9/2 5/10/2
f 5/10/3 6/9/3 2/11/3 1/12/3
f 3/13/4 7/6/4 5/10/4 1/14/4
f 8/5/5 4/2/5 2/1/5 6/9/5
f 9/15/6 10/16/6 12/8/6 11/7/6
f 7/6/4 3/13/4 9/17/4 11/7/4
f 4/2/7 8/5/7 12/8/7 10/18/7
f 3/19/8 4/20/8 10/16/8 9/15/8
f 13/21/8 14/22/8 16/23/8 15/24/8
f 3/13/4 1/14/4 13/25/4 15/26/4
f 4/20/6 3/19/6 15/24/6 16/23/6
f 1/12/3 2/11/3 14/27/3 13/28/3
