# Blender v2.93.0 OBJ File: ''
# www.blender.org
mtllib poolCollision.mtl
o Plane
v 1.071371 0.000743 0.123052
v -0.865815 0.000000 -1.806700
v 1.071479 0.002368 -1.806137
v 0.682076 0.000000 0.123089
v -0.865773 0.003949 1.671536
v 0.682076 0.000000 1.671891
v -0.865815 0.000000 -1.324253
v -0.865815 0.000000 -0.841806
v -0.866290 -0.000977 -0.350501
v 1.001142 0.000974 0.122756
v 1.071484 0.000165 -1.388629
v -0.492890 -0.004705 -1.808323
v -0.478842 -0.159264 0.123089
v -0.092311 -0.334150 -0.114594
v 0.302815 -0.258492 0.415693
v 0.309620 -0.274623 -0.349968
v 0.123674 -0.311777 -0.811721
v 0.309466 -0.138425 -1.395098
v -0.091870 0.000000 1.671891
v 0.295103 0.000000 1.671891
v -0.865617 0.000692 1.370897
v 0.682076 0.000000 1.284690
v 0.682076 0.000000 0.897490
v 0.682076 0.000000 0.510289
v 0.564418 -0.227521 -0.379437
v 0.902959 -0.170475 -0.359358
v 0.883638 -0.177717 -0.903452
v 0.615591 -0.142717 -1.299152
v 0.902959 -0.117893 -1.324253
v -0.488562 -0.255985 -0.919528
v 0.183166 -0.327615 -0.265782
v -0.142164 -0.343772 -0.841806
v -0.478842 -0.196891 -1.324253
v -0.104470 -0.203368 -1.324253
v -0.087902 -0.271534 0.743193
v -0.457093 -0.153379 0.888517
v 0.295103 -0.199458 0.897490
v 0.295103 -0.117785 1.284690
v -0.091870 -0.160397 1.284690
v -0.478842 -0.106429 1.284690
vt 1.447041 1.195964
vt 2.063434 2.309525
vt 0.490114 2.067519
vt 1.516141 3.132825
vt 2.536721 0.188577
vt 2.157042 1.210669
vt 2.685094 0.213790
vt 2.554246 3.350272
vt 2.123447 3.188912
vt 2.493763 4.249400
vt 0.872673 3.330818
vt 0.905428 1.112504
vt 1.863036 0.083898
vt -0.842644 0.114620
vt 0.039452 0.622259
vt -0.780507 2.287155
vt 0.619655 0.934099
vt 0.006341 3.136316
vt -0.837654 4.227411
vt -0.767111 3.126878
vt -1.736444 2.155374
vt -1.744002 1.103335
vt 0.858766 -0.495825
vt 0.031773 -1.164900
vt 0.837144 -1.513714
vt 1.821703 -0.755582
vt -1.671263 -2.551491
vt -0.817179 -2.344577
vt -0.771643 -1.496395
vt -1.656494 -3.195331
vt -0.054632 2.112817
vt -1.649533 4.249400
vt -1.682547 3.199311
vt 0.011289 -2.320533
vt 0.835191 -2.351350
vt 0.003652 -3.211858
vt 0.833989 -3.215842
vt 1.663564 -3.249448
vt 1.697190 -2.419385
vt 1.760279 -1.589673
vn -0.1443 0.9724 -0.1832
vn -0.4229 0.9045 0.0546
vn -0.1269 0.9850 0.1172
vn -0.0832 0.9744 0.2087
vn -0.0483 0.9364 -0.3477
vn -0.4095 0.9063 -0.1046
vn -0.1956 0.9455 -0.2604
vn -0.5919 0.8056 0.0252
vn -0.2999 0.9442 0.1363
vn -0.1811 0.9591 0.2175
vn -0.0572 0.9533 0.2965
vn -0.3229 0.9448 -0.0561
vn -0.3493 0.9149 -0.2021
vn 0.3690 0.9285 -0.0418
vn 0.1311 0.9896 -0.0592
vn 0.3548 0.9328 0.0633
vn -0.2703 0.9627 -0.0098
vn -0.0155 0.9554 0.2949
vn 0.1272 0.9537 0.2724
vn 0.2264 0.9498 0.2160
vn 0.5378 0.8427 0.0257
vn 0.4611 0.8861 -0.0476
vn -0.3363 0.9398 -0.0609
vn 0.0839 0.9902 -0.1115
vn -0.2832 0.9504 -0.1286
vn -0.5334 0.8450 -0.0380
vn 0.2893 0.9568 -0.0291
vn 0.1613 0.9690 -0.1871
vn 0.2948 0.9527 -0.0735
vn 0.1593 0.9737 -0.1630
vn 0.0535 0.9924 0.1106
vn 0.2524 0.9497 0.1852
vn 0.3878 0.9131 0.1258
vn 0.0213 0.9676 -0.2517
vn -0.1743 0.9644 -0.1989
vn -0.0033 0.9465 -0.3227
vn -0.1012 0.9643 -0.2449
vn -0.1489 0.9776 -0.1488
vn -0.2652 0.9562 -0.1240
vn -0.4433 0.8927 -0.0806
usemtl Material.001
s 1
f 25/1/1 27/2/2 17/3/3
f 27/2/2 28/4/4 17/3/3
f 10/5/5 26/6/6 25/1/1
f 10/5/5 1/7/7 26/6/6
f 11/8/8 29/9/9 27/2/2
f 11/8/8 3/10/10 29/9/9
f 29/9/9 3/10/10 28/4/4
f 28/4/4 3/10/10 18/11/11
f 25/1/1 17/3/3 16/12/12
f 25/1/1 16/12/12 4/13/13
f 25/1/1 4/13/13 10/5/5
f 13/14/14 14/15/15 30/16/16
f 16/12/12 17/3/3 31/17/17
f 34/18/18 12/19/19 33/20/20
f 30/16/16 8/21/21 9/22/22
f 15/23/23 35/24/24 37/25/25
f 4/13/13 15/23/23 24/26/26
f 21/27/27 40/28/28 36/29/29
f 21/27/27 5/30/30 40/28/28
f 25/1/1 26/6/6 27/2/2
f 27/2/2 29/9/9 28/4/4
f 11/8/8 27/2/2 26/6/6
f 11/8/8 26/6/6 1/7/7
f 17/3/3 32/31/31 14/15/15
f 17/3/3 14/15/15 31/17/17
f 17/3/3 28/4/4 18/11/11
f 30/16/16 14/15/15 32/31/31
f 33/20/20 30/16/16 32/31/31
f 33/20/20 32/31/31 34/18/18
f 34/18/18 32/31/31 17/3/3
f 34/18/18 17/3/3 18/11/11
f 16/12/12 31/17/17 15/23/23
f 16/12/12 15/23/23 4/13/13
f 13/14/14 30/16/16 9/22/22
f 14/15/15 15/23/23 31/17/17
f 12/19/19 34/18/18 18/11/11
f 12/19/19 18/11/11 3/10/10
f 12/19/19 2/32/32 7/33/33
f 12/19/19 7/33/33 33/20/20
f 33/20/20 7/33/33 8/21/21
f 33/20/20 8/21/21 30/16/16
f 39/34/34 38/35/35 37/25/25
f 39/34/34 37/25/25 35/24/24
f 39/34/34 35/24/24 36/29/29
f 39/34/34 36/29/29 40/28/28
f 35/24/24 14/15/15 13/14/14
f 35/24/24 13/14/14 36/29/29
f 15/23/23 14/15/15 35/24/24
f 36/29/29 13/14/14 9/22/22
f 36/29/29 9/22/22 21/27/27
f 19/36/36 39/34/34 40/28/28
f 19/36/36 40/28/28 5/30/30
f 19/36/36 20/37/37 38/35/35
f 19/36/36 38/35/35 39/34/34
f 20/37/37 6/38/38 22/39/39
f 20/37/37 22/39/39 38/35/35
f 38/35/35 22/39/39 23/40/40
f 38/35/35 23/40/40 37/25/25
f 37/25/25 23/40/40 24/26/26
f 37/25/25 24/26/26 15/23/23
o Plane.001
v -0.872812 0.000000 0.117747
v 1.090727 0.000000 0.117747
v -0.872812 0.000000 -1.800216
v 1.090727 0.000000 -1.800216
v 0.675202 0.000000 0.117747
v 0.675202 0.000000 -1.800216
v -0.872812 0.000000 1.671898
v 0.675202 0.000000 1.671898
v -0.495337 -0.220736 -1.236428
v -0.495337 -0.220736 0.005792
v 0.507276 -0.220736 0.005792
v 0.776402 -0.220736 0.005792
v 0.776402 -0.220736 -1.236428
v 0.507276 -0.220736 -1.236428
v -0.495337 -0.220736 1.012379
v 0.507276 -0.220736 1.012379
v -0.082447 -0.343792 -0.629290
v -0.082447 -0.343792 -0.126210
v 0.323596 -0.343792 -0.126210
v 0.432588 -0.343792 -0.126210
v 0.432588 -0.343792 -0.629290
v 0.323596 -0.343792 -0.629290
v -0.082447 -0.343792 0.281443
v 0.323596 -0.343792 0.281443
v -74.795013 0.000000 6.523432
v 230.679718 0.000000 6.523432
v -74.795013 0.000000 -160.714249
v 230.679718 0.000000 -160.714249
v 1.804225 0.000000 0.901103
v 32.500813 0.000000 -160.714249
v -74.795013 0.000000 165.634933
v 32.500805 0.000000 165.634933
v 230.679718 0.000000 165.634933
vt 0.792237 0.000000
vt 0.792237 0.000000
vt 0.792237 0.000000
vt 0.792237 0.000000
vt 0.000000 1.000000
vt 0.000000 0.000000
vt 0.000000 0.000000
vt 0.000000 1.000000
vt 1.000000 0.000000
vt 1.000000 1.000000
vt 1.000000 1.000000
vt 1.000000 0.000000
vt 1.000000 1.000000
vt 0.792237 1.000000
vt 0.792237 1.000000
vt 0.000000 1.000000
vt 0.792237 0.000000
vt 1.000000 0.000000
vt 0.000000 0.000000
vt 0.000000 0.000000
vt 0.000000 0.000000
vt 0.792237 0.000000
vt 0.792237 1.000000
vt 0.000000 0.000000
vt 0.000000 0.000000
vt 0.792237 0.000000
vt 0.792237 1.000000
vt 0.000000 1.000000
vt 0.792237 0.000000
vt 1.000000 0.000000
vt 0.000000 0.000000
vt 1.000000 1.000000
vt 1.000000 0.000000
vn -0.5566 0.8308 0.0000
vn 0.2856 0.9583 0.0000
vn -0.3370 0.9415 0.0000
vn 0.0000 0.9312 0.3646
vn 0.0000 0.4523 -0.8918
vn 0.5048 0.8632 0.0000
vn -0.5747 0.8184 0.0000
vn -0.7959 0.6055 0.0000
vn 0.0000 0.9483 -0.3174
vn 0.0000 1.0000 0.0000
vn 0.0000 0.9861 -0.1660
vn 0.0000 0.9801 0.1986
vn 0.0000 0.7315 -0.6819
usemtl None
s off
f 56/41/41 51/42/41 59/43/41 64/44/41
f 49/45/42 50/46/42 58/47/42 57/48/42
f 52/49/43 53/50/43 61/51/43 60/52/43
f 44/53/44 46/54/44 54/55/44 53/50/44
f 46/54/44 43/56/44 49/45/44 54/55/44
f 45/57/45 42/58/45 52/49/45 51/42/45
f 41/59/46 47/60/46 55/61/46 50/46/46
f 42/58/47 44/53/47 53/50/47 52/49/47
f 43/56/46 41/59/46 50/46/46 49/45/46
f 48/62/48 45/57/48 51/42/48 56/41/48
f 47/60/49 48/62/49 56/41/49 55/61/49
f 59/43/50 60/52/50 61/51/50 62/63/50
f 58/47/50 59/43/50 62/63/50 57/48/50
f 59/43/50 58/47/50 63/64/50 64/44/50
f 55/61/51 56/41/51 64/44/51 63/64/51
f 53/50/52 54/55/52 62/63/52 61/51/52
f 54/55/52 49/45/52 57/48/52 62/63/52
f 51/42/53 52/49/53 60/52/53 59/43/53
f 50/46/42 55/61/42 63/64/42 58/47/42
f 48/62/50 47/60/50 71/65/50 72/66/50
f 43/56/50 46/54/50 70/67/50 67/68/50
f 42/58/50 45/57/50 69/69/50 66/70/50
f 47/60/50 41/59/50 65/71/50 71/65/50
f 46/54/50 44/53/50 68/72/50 70/67/50
f 44/53/50 42/58/50 66/70/50 68/72/50
f 41/59/50 43/56/50 67/68/50 65/71/50
f 45/57/50 48/62/50 72/66/50 69/69/50
f 66/70/50 69/69/50 72/66/50 73/73/50
